<mxfile host="Electron" modified="2024-01-18T20:04:39.553Z" agent="Mozilla/5.0 (Windows NT 10.0; Win64; x64) AppleWebKit/537.36 (KHTML, like Gecko) draw.io/22.1.16 Chrome/120.0.6099.109 Electron/28.1.0 Safari/537.36" etag="Afo7QRRr5iyFyS2xoxIX" version="22.1.16" type="device">
  <diagram name="Page-1" id="pnvvygcKVCibCrzhDzbN">
    <mxGraphModel dx="794" dy="519" grid="1" gridSize="10" guides="1" tooltips="1" connect="1" arrows="1" fold="1" page="1" pageScale="1" pageWidth="850" pageHeight="1100" math="0" shadow="0">
      <root>
        <mxCell id="0" />
        <mxCell id="1" parent="0" />
        <mxCell id="whdy-unHdP2kEKWUCNcB-2" value="Home page&amp;nbsp;" style="swimlane;whiteSpace=wrap;html=1;" vertex="1" parent="1">
          <mxGeometry x="40" y="40" width="360" height="360" as="geometry" />
        </mxCell>
        <mxCell id="whdy-unHdP2kEKWUCNcB-12" value="Schdule" style="swimlane;fontStyle=0;childLayout=stackLayout;horizontal=1;startSize=30;horizontalStack=0;resizeParent=1;resizeParentMax=0;resizeLast=0;collapsible=1;marginBottom=0;whiteSpace=wrap;html=1;" vertex="1" parent="whdy-unHdP2kEKWUCNcB-2">
          <mxGeometry x="190" y="70" width="160" height="120" as="geometry" />
        </mxCell>
        <mxCell id="whdy-unHdP2kEKWUCNcB-13" value="schedule 1&amp;nbsp;&lt;span style=&quot;white-space: pre;&quot;&gt;&#x9;&lt;/span&gt;&lt;span style=&quot;white-space: pre;&quot;&gt;&#x9;&lt;/span&gt;" style="text;strokeColor=none;fillColor=none;align=left;verticalAlign=middle;spacingLeft=4;spacingRight=4;overflow=hidden;points=[[0,0.5],[1,0.5]];portConstraint=eastwest;rotatable=0;whiteSpace=wrap;html=1;" vertex="1" parent="whdy-unHdP2kEKWUCNcB-12">
          <mxGeometry y="30" width="160" height="30" as="geometry" />
        </mxCell>
        <mxCell id="whdy-unHdP2kEKWUCNcB-14" value="Ex: Date+ time + clientName&lt;span style=&quot;white-space: pre;&quot;&gt;&#x9;&lt;/span&gt;" style="text;strokeColor=none;fillColor=none;align=left;verticalAlign=middle;spacingLeft=4;spacingRight=4;overflow=hidden;points=[[0,0.5],[1,0.5]];portConstraint=eastwest;rotatable=0;whiteSpace=wrap;html=1;" vertex="1" parent="whdy-unHdP2kEKWUCNcB-12">
          <mxGeometry y="60" width="160" height="30" as="geometry" />
        </mxCell>
        <mxCell id="whdy-unHdP2kEKWUCNcB-15" value="1/1 &lt;span style=&quot;white-space: pre;&quot;&gt;&#x9;&lt;/span&gt;2:00pm&lt;span style=&quot;white-space: pre;&quot;&gt;&#x9;&lt;/span&gt;John Doe" style="text;strokeColor=none;fillColor=none;align=left;verticalAlign=middle;spacingLeft=4;spacingRight=4;overflow=hidden;points=[[0,0.5],[1,0.5]];portConstraint=eastwest;rotatable=0;whiteSpace=wrap;html=1;" vertex="1" parent="whdy-unHdP2kEKWUCNcB-12">
          <mxGeometry y="90" width="160" height="30" as="geometry" />
        </mxCell>
        <mxCell id="whdy-unHdP2kEKWUCNcB-8" value="Actions" style="swimlane;fontStyle=0;childLayout=stackLayout;horizontal=1;startSize=30;horizontalStack=0;resizeParent=1;resizeParentMax=0;resizeLast=0;collapsible=1;marginBottom=0;whiteSpace=wrap;html=1;" vertex="1" parent="whdy-unHdP2kEKWUCNcB-2">
          <mxGeometry x="20" y="220" width="140" height="90" as="geometry" />
        </mxCell>
        <mxCell id="whdy-unHdP2kEKWUCNcB-9" value="Modify appointment&amp;nbsp;" style="text;strokeColor=none;fillColor=none;align=left;verticalAlign=middle;spacingLeft=4;spacingRight=4;overflow=hidden;points=[[0,0.5],[1,0.5]];portConstraint=eastwest;rotatable=0;whiteSpace=wrap;html=1;" vertex="1" parent="whdy-unHdP2kEKWUCNcB-8">
          <mxGeometry y="30" width="140" height="30" as="geometry" />
        </mxCell>
        <mxCell id="whdy-unHdP2kEKWUCNcB-10" value="More button to perform actions" style="text;strokeColor=none;fillColor=none;align=left;verticalAlign=middle;spacingLeft=4;spacingRight=4;overflow=hidden;points=[[0,0.5],[1,0.5]];portConstraint=eastwest;rotatable=0;whiteSpace=wrap;html=1;" vertex="1" parent="whdy-unHdP2kEKWUCNcB-8">
          <mxGeometry y="60" width="140" height="30" as="geometry" />
        </mxCell>
        <mxCell id="whdy-unHdP2kEKWUCNcB-16" value="Client (admin only)" style="swimlane;fontStyle=0;childLayout=stackLayout;horizontal=1;startSize=30;horizontalStack=0;resizeParent=1;resizeParentMax=0;resizeLast=0;collapsible=1;marginBottom=0;whiteSpace=wrap;html=1;" vertex="1" parent="whdy-unHdP2kEKWUCNcB-2">
          <mxGeometry x="190" y="220" width="140" height="90" as="geometry" />
        </mxCell>
        <mxCell id="whdy-unHdP2kEKWUCNcB-17" value="search client" style="text;strokeColor=none;fillColor=none;align=left;verticalAlign=middle;spacingLeft=4;spacingRight=4;overflow=hidden;points=[[0,0.5],[1,0.5]];portConstraint=eastwest;rotatable=0;whiteSpace=wrap;html=1;" vertex="1" parent="whdy-unHdP2kEKWUCNcB-16">
          <mxGeometry y="30" width="140" height="30" as="geometry" />
        </mxCell>
        <mxCell id="whdy-unHdP2kEKWUCNcB-18" value="More button to perform actions" style="text;strokeColor=none;fillColor=none;align=left;verticalAlign=middle;spacingLeft=4;spacingRight=4;overflow=hidden;points=[[0,0.5],[1,0.5]];portConstraint=eastwest;rotatable=0;whiteSpace=wrap;html=1;" vertex="1" parent="whdy-unHdP2kEKWUCNcB-16">
          <mxGeometry y="60" width="140" height="30" as="geometry" />
        </mxCell>
        <mxCell id="whdy-unHdP2kEKWUCNcB-20" value="&lt;span style=&quot;font-weight: normal;&quot;&gt;buttons to other pages&lt;/span&gt;" style="swimlane;whiteSpace=wrap;html=1;" vertex="1" parent="whdy-unHdP2kEKWUCNcB-2">
          <mxGeometry y="20" width="360" height="20" as="geometry" />
        </mxCell>
        <mxCell id="whdy-unHdP2kEKWUCNcB-4" value="Profile" style="swimlane;fontStyle=0;childLayout=stackLayout;horizontal=1;startSize=30;horizontalStack=0;resizeParent=1;resizeParentMax=0;resizeLast=0;collapsible=1;marginBottom=0;whiteSpace=wrap;html=1;" vertex="1" parent="1">
          <mxGeometry x="60" y="110" width="140" height="60" as="geometry" />
        </mxCell>
        <mxCell id="whdy-unHdP2kEKWUCNcB-5" value="Logined user info." style="text;strokeColor=none;fillColor=none;align=left;verticalAlign=middle;spacingLeft=4;spacingRight=4;overflow=hidden;points=[[0,0.5],[1,0.5]];portConstraint=eastwest;rotatable=0;whiteSpace=wrap;html=1;" vertex="1" parent="whdy-unHdP2kEKWUCNcB-4">
          <mxGeometry y="30" width="140" height="30" as="geometry" />
        </mxCell>
        <mxCell id="whdy-unHdP2kEKWUCNcB-21" value="Schdule page" style="swimlane;whiteSpace=wrap;html=1;" vertex="1" parent="1">
          <mxGeometry x="440" y="40" width="360" height="360" as="geometry" />
        </mxCell>
        <mxCell id="whdy-unHdP2kEKWUCNcB-32" value="&lt;span style=&quot;font-weight: normal;&quot;&gt;buttons to other pages&lt;/span&gt;" style="swimlane;whiteSpace=wrap;html=1;" vertex="1" parent="whdy-unHdP2kEKWUCNcB-21">
          <mxGeometry y="20" width="360" height="20" as="geometry" />
        </mxCell>
        <mxCell id="whdy-unHdP2kEKWUCNcB-59" value="" style="childLayout=tableLayout;recursiveResize=0;shadow=0;fillColor=none;" vertex="1" parent="whdy-unHdP2kEKWUCNcB-21">
          <mxGeometry x="150" y="60" width="180" height="140" as="geometry" />
        </mxCell>
        <mxCell id="whdy-unHdP2kEKWUCNcB-60" value="" style="shape=tableRow;horizontal=0;startSize=0;swimlaneHead=0;swimlaneBody=0;top=0;left=0;bottom=0;right=0;dropTarget=0;collapsible=0;recursiveResize=0;expand=0;fontStyle=0;fillColor=none;strokeColor=inherit;" vertex="1" parent="whdy-unHdP2kEKWUCNcB-59">
          <mxGeometry width="180" height="47" as="geometry" />
        </mxCell>
        <mxCell id="whdy-unHdP2kEKWUCNcB-61" value="Date" style="connectable=0;recursiveResize=0;strokeColor=inherit;fillColor=none;align=center;whiteSpace=wrap;html=1;" vertex="1" parent="whdy-unHdP2kEKWUCNcB-60">
          <mxGeometry width="60" height="47" as="geometry">
            <mxRectangle width="60" height="47" as="alternateBounds" />
          </mxGeometry>
        </mxCell>
        <mxCell id="whdy-unHdP2kEKWUCNcB-62" value="User Name" style="connectable=0;recursiveResize=0;strokeColor=inherit;fillColor=none;align=center;whiteSpace=wrap;html=1;" vertex="1" parent="whdy-unHdP2kEKWUCNcB-60">
          <mxGeometry x="60" width="60" height="47" as="geometry">
            <mxRectangle width="60" height="47" as="alternateBounds" />
          </mxGeometry>
        </mxCell>
        <mxCell id="whdy-unHdP2kEKWUCNcB-63" value="more names (admin)" style="connectable=0;recursiveResize=0;strokeColor=inherit;fillColor=none;align=center;whiteSpace=wrap;html=1;" vertex="1" parent="whdy-unHdP2kEKWUCNcB-60">
          <mxGeometry x="120" width="60" height="47" as="geometry">
            <mxRectangle width="60" height="47" as="alternateBounds" />
          </mxGeometry>
        </mxCell>
        <mxCell id="whdy-unHdP2kEKWUCNcB-64" style="shape=tableRow;horizontal=0;startSize=0;swimlaneHead=0;swimlaneBody=0;top=0;left=0;bottom=0;right=0;dropTarget=0;collapsible=0;recursiveResize=0;expand=0;fontStyle=0;fillColor=none;strokeColor=inherit;" vertex="1" parent="whdy-unHdP2kEKWUCNcB-59">
          <mxGeometry y="47" width="180" height="46" as="geometry" />
        </mxCell>
        <mxCell id="whdy-unHdP2kEKWUCNcB-65" value="time1&lt;span style=&quot;white-space: pre;&quot;&gt;&#x9;&lt;/span&gt;&lt;span style=&quot;white-space: pre;&quot;&gt;&#x9;&lt;/span&gt;&lt;span style=&quot;white-space: pre;&quot;&gt;&#x9;&lt;/span&gt;" style="connectable=0;recursiveResize=0;strokeColor=inherit;fillColor=none;align=center;whiteSpace=wrap;html=1;" vertex="1" parent="whdy-unHdP2kEKWUCNcB-64">
          <mxGeometry width="60" height="46" as="geometry">
            <mxRectangle width="60" height="46" as="alternateBounds" />
          </mxGeometry>
        </mxCell>
        <mxCell id="whdy-unHdP2kEKWUCNcB-66" value="" style="connectable=0;recursiveResize=0;strokeColor=inherit;fillColor=none;align=center;whiteSpace=wrap;html=1;" vertex="1" parent="whdy-unHdP2kEKWUCNcB-64">
          <mxGeometry x="60" width="60" height="46" as="geometry">
            <mxRectangle width="60" height="46" as="alternateBounds" />
          </mxGeometry>
        </mxCell>
        <mxCell id="whdy-unHdP2kEKWUCNcB-67" value="" style="connectable=0;recursiveResize=0;strokeColor=inherit;fillColor=none;align=center;whiteSpace=wrap;html=1;" vertex="1" parent="whdy-unHdP2kEKWUCNcB-64">
          <mxGeometry x="120" width="60" height="46" as="geometry">
            <mxRectangle width="60" height="46" as="alternateBounds" />
          </mxGeometry>
        </mxCell>
        <mxCell id="whdy-unHdP2kEKWUCNcB-68" style="shape=tableRow;horizontal=0;startSize=0;swimlaneHead=0;swimlaneBody=0;top=0;left=0;bottom=0;right=0;dropTarget=0;collapsible=0;recursiveResize=0;expand=0;fontStyle=0;fillColor=none;strokeColor=inherit;" vertex="1" parent="whdy-unHdP2kEKWUCNcB-59">
          <mxGeometry y="93" width="180" height="47" as="geometry" />
        </mxCell>
        <mxCell id="whdy-unHdP2kEKWUCNcB-69" value="time2&lt;span style=&quot;white-space: pre;&quot;&gt;&#x9;&lt;/span&gt;" style="connectable=0;recursiveResize=0;strokeColor=inherit;fillColor=none;align=center;whiteSpace=wrap;html=1;" vertex="1" parent="whdy-unHdP2kEKWUCNcB-68">
          <mxGeometry width="60" height="47" as="geometry">
            <mxRectangle width="60" height="47" as="alternateBounds" />
          </mxGeometry>
        </mxCell>
        <mxCell id="whdy-unHdP2kEKWUCNcB-70" value="" style="connectable=0;recursiveResize=0;strokeColor=inherit;fillColor=none;align=center;whiteSpace=wrap;html=1;" vertex="1" parent="whdy-unHdP2kEKWUCNcB-68">
          <mxGeometry x="60" width="60" height="47" as="geometry">
            <mxRectangle width="60" height="47" as="alternateBounds" />
          </mxGeometry>
        </mxCell>
        <mxCell id="whdy-unHdP2kEKWUCNcB-71" value="" style="connectable=0;recursiveResize=0;strokeColor=inherit;fillColor=none;align=center;whiteSpace=wrap;html=1;" vertex="1" parent="whdy-unHdP2kEKWUCNcB-68">
          <mxGeometry x="120" width="60" height="47" as="geometry">
            <mxRectangle width="60" height="47" as="alternateBounds" />
          </mxGeometry>
        </mxCell>
        <mxCell id="whdy-unHdP2kEKWUCNcB-72" value="" style="childLayout=tableLayout;recursiveResize=0;shadow=0;fillColor=none;" vertex="1" parent="whdy-unHdP2kEKWUCNcB-21">
          <mxGeometry x="150" y="200" width="180" height="140" as="geometry" />
        </mxCell>
        <mxCell id="whdy-unHdP2kEKWUCNcB-73" value="" style="shape=tableRow;horizontal=0;startSize=0;swimlaneHead=0;swimlaneBody=0;top=0;left=0;bottom=0;right=0;dropTarget=0;collapsible=0;recursiveResize=0;expand=0;fontStyle=0;fillColor=none;strokeColor=inherit;" vertex="1" parent="whdy-unHdP2kEKWUCNcB-72">
          <mxGeometry width="180" height="47" as="geometry" />
        </mxCell>
        <mxCell id="whdy-unHdP2kEKWUCNcB-74" value="time3" style="connectable=0;recursiveResize=0;strokeColor=inherit;fillColor=none;align=center;whiteSpace=wrap;html=1;" vertex="1" parent="whdy-unHdP2kEKWUCNcB-73">
          <mxGeometry width="60" height="47" as="geometry">
            <mxRectangle width="60" height="47" as="alternateBounds" />
          </mxGeometry>
        </mxCell>
        <mxCell id="whdy-unHdP2kEKWUCNcB-75" value="Task info" style="connectable=0;recursiveResize=0;strokeColor=inherit;fillColor=none;align=center;whiteSpace=wrap;html=1;" vertex="1" parent="whdy-unHdP2kEKWUCNcB-73">
          <mxGeometry x="60" width="60" height="47" as="geometry">
            <mxRectangle width="60" height="47" as="alternateBounds" />
          </mxGeometry>
        </mxCell>
        <mxCell id="whdy-unHdP2kEKWUCNcB-76" value="" style="connectable=0;recursiveResize=0;strokeColor=inherit;fillColor=none;align=center;whiteSpace=wrap;html=1;" vertex="1" parent="whdy-unHdP2kEKWUCNcB-73">
          <mxGeometry x="120" width="60" height="47" as="geometry">
            <mxRectangle width="60" height="47" as="alternateBounds" />
          </mxGeometry>
        </mxCell>
        <mxCell id="whdy-unHdP2kEKWUCNcB-77" style="shape=tableRow;horizontal=0;startSize=0;swimlaneHead=0;swimlaneBody=0;top=0;left=0;bottom=0;right=0;dropTarget=0;collapsible=0;recursiveResize=0;expand=0;fontStyle=0;fillColor=none;strokeColor=inherit;" vertex="1" parent="whdy-unHdP2kEKWUCNcB-72">
          <mxGeometry y="47" width="180" height="46" as="geometry" />
        </mxCell>
        <mxCell id="whdy-unHdP2kEKWUCNcB-78" value="" style="connectable=0;recursiveResize=0;strokeColor=inherit;fillColor=none;align=center;whiteSpace=wrap;html=1;" vertex="1" parent="whdy-unHdP2kEKWUCNcB-77">
          <mxGeometry width="60" height="46" as="geometry">
            <mxRectangle width="60" height="46" as="alternateBounds" />
          </mxGeometry>
        </mxCell>
        <mxCell id="whdy-unHdP2kEKWUCNcB-79" value="" style="connectable=0;recursiveResize=0;strokeColor=inherit;fillColor=none;align=center;whiteSpace=wrap;html=1;" vertex="1" parent="whdy-unHdP2kEKWUCNcB-77">
          <mxGeometry x="60" width="60" height="46" as="geometry">
            <mxRectangle width="60" height="46" as="alternateBounds" />
          </mxGeometry>
        </mxCell>
        <mxCell id="whdy-unHdP2kEKWUCNcB-80" value="" style="connectable=0;recursiveResize=0;strokeColor=inherit;fillColor=none;align=center;whiteSpace=wrap;html=1;" vertex="1" parent="whdy-unHdP2kEKWUCNcB-77">
          <mxGeometry x="120" width="60" height="46" as="geometry">
            <mxRectangle width="60" height="46" as="alternateBounds" />
          </mxGeometry>
        </mxCell>
        <mxCell id="whdy-unHdP2kEKWUCNcB-81" style="shape=tableRow;horizontal=0;startSize=0;swimlaneHead=0;swimlaneBody=0;top=0;left=0;bottom=0;right=0;dropTarget=0;collapsible=0;recursiveResize=0;expand=0;fontStyle=0;fillColor=none;strokeColor=inherit;" vertex="1" parent="whdy-unHdP2kEKWUCNcB-72">
          <mxGeometry y="93" width="180" height="47" as="geometry" />
        </mxCell>
        <mxCell id="whdy-unHdP2kEKWUCNcB-82" value="" style="connectable=0;recursiveResize=0;strokeColor=inherit;fillColor=none;align=center;whiteSpace=wrap;html=1;" vertex="1" parent="whdy-unHdP2kEKWUCNcB-81">
          <mxGeometry width="60" height="47" as="geometry">
            <mxRectangle width="60" height="47" as="alternateBounds" />
          </mxGeometry>
        </mxCell>
        <mxCell id="whdy-unHdP2kEKWUCNcB-83" value="" style="connectable=0;recursiveResize=0;strokeColor=inherit;fillColor=none;align=center;whiteSpace=wrap;html=1;" vertex="1" parent="whdy-unHdP2kEKWUCNcB-81">
          <mxGeometry x="60" width="60" height="47" as="geometry">
            <mxRectangle width="60" height="47" as="alternateBounds" />
          </mxGeometry>
        </mxCell>
        <mxCell id="whdy-unHdP2kEKWUCNcB-84" value="" style="connectable=0;recursiveResize=0;strokeColor=inherit;fillColor=none;align=center;whiteSpace=wrap;html=1;" vertex="1" parent="whdy-unHdP2kEKWUCNcB-81">
          <mxGeometry x="120" width="60" height="47" as="geometry">
            <mxRectangle width="60" height="47" as="alternateBounds" />
          </mxGeometry>
        </mxCell>
        <mxCell id="whdy-unHdP2kEKWUCNcB-86" value="Choose date button" style="rounded=1;html=1;shadow=0;dashed=0;whiteSpace=wrap;fontSize=10;fillColor=#E6E6E6;align=center;strokeColor=#E6E6E6;fontColor=#333333;" vertex="1" parent="whdy-unHdP2kEKWUCNcB-21">
          <mxGeometry x="10" y="80" width="105.5" height="16.88" as="geometry" />
        </mxCell>
        <mxCell id="whdy-unHdP2kEKWUCNcB-87" value="Client search page" style="swimlane;whiteSpace=wrap;html=1;" vertex="1" parent="1">
          <mxGeometry x="40" y="440" width="380" height="530" as="geometry" />
        </mxCell>
        <mxCell id="whdy-unHdP2kEKWUCNcB-98" value="&lt;span style=&quot;font-weight: normal;&quot;&gt;buttons to other pages&lt;/span&gt;" style="swimlane;whiteSpace=wrap;html=1;" vertex="1" parent="whdy-unHdP2kEKWUCNcB-87">
          <mxGeometry y="20" width="360" height="20" as="geometry" />
        </mxCell>
        <mxCell id="whdy-unHdP2kEKWUCNcB-99" value="Seach bar" style="rounded=1;fillColor=#0057D8;strokeColor=none;html=1;whiteSpace=wrap;fontColor=#ffffff;align=center;verticalAlign=middle;fontStyle=0;fontSize=12;sketch=0;" vertex="1" parent="whdy-unHdP2kEKWUCNcB-87">
          <mxGeometry x="20" y="60" width="210" height="33" as="geometry" />
        </mxCell>
        <mxCell id="whdy-unHdP2kEKWUCNcB-104" value="Submit button" style="rounded=1;html=1;shadow=0;dashed=0;whiteSpace=wrap;fontSize=10;fillColor=#666666;align=center;strokeColor=#4D4D4D;fontColor=#ffffff;" vertex="1" parent="whdy-unHdP2kEKWUCNcB-87">
          <mxGeometry x="260" y="68.06" width="70" height="16.88" as="geometry" />
        </mxCell>
        <mxCell id="whdy-unHdP2kEKWUCNcB-107" value="" style="rounded=1;fillColor=#253858;strokeColor=none;html=1;arcSize=0;" vertex="1" parent="whdy-unHdP2kEKWUCNcB-87">
          <mxGeometry x="20" y="100" width="190" height="33" as="geometry" />
        </mxCell>
        <mxCell id="whdy-unHdP2kEKWUCNcB-108" value="" style="shape=triangle;direction=south;fillColor=#ffffff;strokeColor=none;html=1" vertex="1" parent="whdy-unHdP2kEKWUCNcB-107">
          <mxGeometry x="1" y="0.5" width="12" height="6" relative="1" as="geometry">
            <mxPoint x="-20" y="-3" as="offset" />
          </mxGeometry>
        </mxCell>
        <mxCell id="whdy-unHdP2kEKWUCNcB-109" value="filter field (optional)" style="shape=mxgraph.ios7.icons.user;fillColor=#ffffff;strokeColor=#253858;html=1;fontColor=#ffffff;align=left;fontSize=12;spacingLeft=10;labelPosition=right;verticalLabelPosition=middle;verticalAlign=middle;" vertex="1" parent="whdy-unHdP2kEKWUCNcB-107">
          <mxGeometry y="0.5" width="24" height="24" relative="1" as="geometry">
            <mxPoint x="10" y="-12" as="offset" />
          </mxGeometry>
        </mxCell>
        <mxCell id="whdy-unHdP2kEKWUCNcB-110" value="" style="rounded=1;fillColor=#ffffff;strokeColor=#DFE1E5;shadow=1;html=1;arcSize=4" vertex="1" parent="whdy-unHdP2kEKWUCNcB-87">
          <mxGeometry x="20" y="139" width="160" height="111" as="geometry" />
        </mxCell>
        <mxCell id="whdy-unHdP2kEKWUCNcB-111" value="" style="rounded=0;fillColor=#F4F5F7;strokeColor=none;shadow=0;html=1;align=left;fontSize=12;spacingLeft=10;fontColor=#253858;resizeWidth=1" vertex="1" parent="whdy-unHdP2kEKWUCNcB-110">
          <mxGeometry width="160" height="33" relative="1" as="geometry">
            <mxPoint y="6" as="offset" />
          </mxGeometry>
        </mxCell>
        <mxCell id="whdy-unHdP2kEKWUCNcB-112" value="Name&lt;span style=&quot;white-space: pre;&quot;&gt;&#x9;&lt;/span&gt;" style="shape=mxgraph.ios7.icons.user;fillColor=#ffffff;strokeColor=#253858;html=1;fontColor=#253858;align=left;fontSize=12;spacingLeft=10;labelPosition=right;verticalLabelPosition=middle;verticalAlign=middle;" vertex="1" parent="whdy-unHdP2kEKWUCNcB-111">
          <mxGeometry y="0.5" width="24" height="24" relative="1" as="geometry">
            <mxPoint x="10" y="-12" as="offset" />
          </mxGeometry>
        </mxCell>
        <mxCell id="whdy-unHdP2kEKWUCNcB-113" value="" style="rounded=0;fillColor=none;strokeColor=none;shadow=0;html=1;align=left;fontSize=12;spacingLeft=10;fontColor=#253858;resizeWidth=1" vertex="1" parent="whdy-unHdP2kEKWUCNcB-110">
          <mxGeometry width="160" height="33" relative="1" as="geometry">
            <mxPoint y="39" as="offset" />
          </mxGeometry>
        </mxCell>
        <mxCell id="whdy-unHdP2kEKWUCNcB-114" value="more filter term" style="shape=mxgraph.ios7.icons.user;fillColor=#ffffff;strokeColor=#253858;html=1;fontColor=#253858;align=left;fontSize=12;spacingLeft=10;labelPosition=right;verticalLabelPosition=middle;verticalAlign=middle;" vertex="1" parent="whdy-unHdP2kEKWUCNcB-113">
          <mxGeometry y="0.5" width="24" height="24" relative="1" as="geometry">
            <mxPoint x="10" y="-12" as="offset" />
          </mxGeometry>
        </mxCell>
        <mxCell id="whdy-unHdP2kEKWUCNcB-118" value="Search result (clickable )" style="swimlane;fontStyle=0;childLayout=stackLayout;horizontal=1;startSize=30;horizontalStack=0;resizeParent=1;resizeParentMax=0;resizeLast=0;collapsible=1;marginBottom=0;whiteSpace=wrap;html=1;" vertex="1" parent="whdy-unHdP2kEKWUCNcB-87">
          <mxGeometry x="20" y="280" width="330" height="120" as="geometry" />
        </mxCell>
        <mxCell id="whdy-unHdP2kEKWUCNcB-119" value="People 1" style="text;strokeColor=none;fillColor=none;align=left;verticalAlign=middle;spacingLeft=4;spacingRight=4;overflow=hidden;points=[[0,0.5],[1,0.5]];portConstraint=eastwest;rotatable=0;whiteSpace=wrap;html=1;" vertex="1" parent="whdy-unHdP2kEKWUCNcB-118">
          <mxGeometry y="30" width="330" height="30" as="geometry" />
        </mxCell>
        <mxCell id="whdy-unHdP2kEKWUCNcB-120" value="People 2&lt;span style=&quot;white-space: pre;&quot;&gt;&#x9;&lt;/span&gt;" style="text;strokeColor=none;fillColor=none;align=left;verticalAlign=middle;spacingLeft=4;spacingRight=4;overflow=hidden;points=[[0,0.5],[1,0.5]];portConstraint=eastwest;rotatable=0;whiteSpace=wrap;html=1;" vertex="1" parent="whdy-unHdP2kEKWUCNcB-118">
          <mxGeometry y="60" width="330" height="30" as="geometry" />
        </mxCell>
        <mxCell id="whdy-unHdP2kEKWUCNcB-121" value="People 3" style="text;strokeColor=none;fillColor=none;align=left;verticalAlign=middle;spacingLeft=4;spacingRight=4;overflow=hidden;points=[[0,0.5],[1,0.5]];portConstraint=eastwest;rotatable=0;whiteSpace=wrap;html=1;" vertex="1" parent="whdy-unHdP2kEKWUCNcB-118">
          <mxGeometry y="90" width="330" height="30" as="geometry" />
        </mxCell>
        <mxCell id="whdy-unHdP2kEKWUCNcB-122" value="Client detail page" style="swimlane;whiteSpace=wrap;html=1;" vertex="1" parent="1">
          <mxGeometry x="460" y="440" width="360" height="160" as="geometry" />
        </mxCell>
        <mxCell id="whdy-unHdP2kEKWUCNcB-133" value="&lt;span style=&quot;font-weight: normal;&quot;&gt;buttons to other pages&lt;/span&gt;" style="swimlane;whiteSpace=wrap;html=1;" vertex="1" parent="whdy-unHdP2kEKWUCNcB-122">
          <mxGeometry y="20" width="360" height="20" as="geometry" />
        </mxCell>
        <mxCell id="whdy-unHdP2kEKWUCNcB-134" value="A form view but only admin role can edit the fileds, &lt;br&gt;chekck out ppt&amp;nbsp;" style="text;html=1;align=center;verticalAlign=middle;resizable=0;points=[];autosize=1;strokeColor=none;fillColor=none;" vertex="1" parent="whdy-unHdP2kEKWUCNcB-122">
          <mxGeometry x="30" y="84.94000000000005" width="290" height="40" as="geometry" />
        </mxCell>
        <mxCell id="whdy-unHdP2kEKWUCNcB-150" value="Task page&lt;span style=&quot;white-space: pre;&quot;&gt;&#x9;&lt;/span&gt;" style="swimlane;whiteSpace=wrap;html=1;" vertex="1" parent="1">
          <mxGeometry x="460" y="640" width="380" height="330" as="geometry" />
        </mxCell>
        <mxCell id="whdy-unHdP2kEKWUCNcB-151" value="&lt;span style=&quot;font-weight: normal;&quot;&gt;buttons to other pages&lt;/span&gt;" style="swimlane;whiteSpace=wrap;html=1;" vertex="1" parent="whdy-unHdP2kEKWUCNcB-150">
          <mxGeometry y="20" width="360" height="20" as="geometry" />
        </mxCell>
        <mxCell id="whdy-unHdP2kEKWUCNcB-154" value="" style="edgeStyle=orthogonalEdgeStyle;rounded=0;orthogonalLoop=1;jettySize=auto;html=1;" edge="1" parent="whdy-unHdP2kEKWUCNcB-150" source="whdy-unHdP2kEKWUCNcB-152" target="whdy-unHdP2kEKWUCNcB-153">
          <mxGeometry relative="1" as="geometry" />
        </mxCell>
        <mxCell id="whdy-unHdP2kEKWUCNcB-152" value="A form view but only admin role can edit the fileds,&amp;nbsp;&lt;br&gt;use ppt as reference&amp;nbsp;" style="text;html=1;align=center;verticalAlign=middle;resizable=0;points=[];autosize=1;strokeColor=none;fillColor=none;" vertex="1" parent="whdy-unHdP2kEKWUCNcB-150">
          <mxGeometry x="35" y="60.00000000000006" width="290" height="40" as="geometry" />
        </mxCell>
        <mxCell id="whdy-unHdP2kEKWUCNcB-153" value="To save work, I think we can use this page for appointment as well" style="text;html=1;align=center;verticalAlign=middle;resizable=0;points=[];autosize=1;strokeColor=none;fillColor=none;" vertex="1" parent="whdy-unHdP2kEKWUCNcB-150">
          <mxGeometry x="-5" y="145.00000000000006" width="380" height="30" as="geometry" />
        </mxCell>
      </root>
    </mxGraphModel>
  </diagram>
</mxfile>
